<?xml version="1.0" encoding="utf-8"?>
<!-- Generator: Adobe Illustrator 24.3.0, SVG Export Plug-In . SVG Version: 6.00 Build 0)  -->
<svg version="1.1" id="Layer_1" xmlns="http://www.w3.org/2000/svg" xmlns:xlink="http://www.w3.org/1999/xlink" x="0px" y="0px"
	 viewBox="0 0 206 235.1" style="enable-background:new 0 0 206 235.1;" xml:space="preserve">
<style type="text/css">
	.st0{fill:#002B3A;}
</style>
<g id="logo">
	<path class="st0" d="M26,166.2c0,7.2-5.8,13-13,13s-13-5.8-13-13c0-4.7,2.5-8.8,6.2-11.1c0.4-0.3,0.9-0.5,1.4-0.7
		c1.6-0.8,3.5-1.2,5.4-1.2C20.2,153.2,26,159,26,166.2z"/>
	<polygon class="st0" points="6.1,59.9 106.1,0 205.7,59.9 206,175.1 105.6,235.1 92.2,226.9 91.9,116.3 91.9,116.3 91.9,107.7 
		141.3,79 177.6,59 164.5,51.3 107.8,16.1 21.2,67.8 20.9,155.9 6.2,155.1 	"/>
	<polygon class="st0" points="48.1,200.4 48.3,84.4 124,40.4 110.9,32.2 35.1,77.3 35.1,191.9 	"/>
	<polygon class="st0" points="77.1,217.7 77.1,101 152.3,57.4 137.8,48.7 62.7,93.4 62.7,208.9 	"/>
</g>
<g id="text">
</g>
</svg>
