<?xml version="1.0" encoding="UTF-8" standalone="no"?>
<svg
   xmlns:dc="http://purl.org/dc/elements/1.1/"
   xmlns:cc="http://creativecommons.org/ns#"
   xmlns:rdf="http://www.w3.org/1999/02/22-rdf-syntax-ns#"
   xmlns:svg="http://www.w3.org/2000/svg"
   xmlns="http://www.w3.org/2000/svg"
   viewBox="680 550 1300 400"
   height="400"
   width="1220"
   xml:space="preserve"
   id="svg2"
   version="1.1">
   
   
   <metadata
     id="metadata8"><rdf:RDF><cc:Work
         rdf:about=""><dc:format>image/svg+xml</dc:format><dc:type
           rdf:resource="http://purl.org/dc/dcmitype/StillImage" /></cc:Work></rdf:RDF></metadata><defs
     id="defs6"><clipPath
       id="clipPath26"
       clipPathUnits="userSpaceOnUse"><path
         id="path24"
         d="M 0,1120 H 1960 V 0 H 0 Z" /></clipPath></defs><g
     transform="matrix(1.3333333,0,0,-1.3333333,0,1493.3333)"
     id="g10"><g
       transform="translate(762.4551,630.6094)"
       id="g12"><path
         id="path14"
         style="fill:#0e3558;fill-opacity:1;fill-rule:nonzero;stroke:none"
         d="M 0,0 V 0.496 L -122.715,71.306 -232.079,7.724 V -131.34 l 13.641,-8.006 -0.055,138.804 95.954,55.908 95.708,-55.127 -95.675,-55.219 0.066,-78.731 h 0.004 v -6.346 l 0.046,-57.053 -0.046,0.024 v -15.438 L 0,-141.502 v 59.567 l -13.324,-7.738 0.071,-44.181 -95.512,-55.088 v 126.043 z" /></g><g
       transform="translate(708.0029,630.8281)"
       id="g16"><path
         id="path18"
         style="fill:#509bd4;fill-opacity:1;fill-rule:nonzero;stroke:none"
         d="m 0,0 -81.794,-47.365 v -157.75 l -13.719,7.602 V -39.465 L -27.201,0 -40.826,7.969 -109.043,-31.607 V -189.17 l -13.902,7.877 v 157.75 l 68.493,39.485 -13.811,7.504 -68.216,-39.134 v -157.796 l -13.483,7.855 V -7.973 l 81.699,47.474 z" /></g><g
       id="g20"><g
         clip-path="url(#clipPath26)"
         id="g22"><g
           transform="translate(552.5137,496.8232)"
           id="g28"><path
             id="path30"
             style="fill:#0e3558;fill-opacity:1;fill-rule:nonzero;stroke:none"
             d="m 0,0 c 0,-8.402 -6.814,-15.215 -15.219,-15.215 -8.406,0 -15.22,6.813 -15.22,15.215 0,8.409 6.814,15.225 15.22,15.225 C -6.814,15.225 0,8.409 0,0" /></g><g
           transform="translate(771.7412,550.4209)"
           id="g32"><path
             id="path34"
             style="fill:#0e3558;fill-opacity:1;fill-rule:nonzero;stroke:none"
             d="m 0,0 c 0,-8.407 -6.812,-15.223 -15.219,-15.223 -8.406,0 -15.218,6.816 -15.218,15.223 0,8.405 6.812,15.217 15.218,15.217 C -6.812,15.217 0,8.405 0,0" /></g><g
           transform="translate(844.0557,530.4053)"
           id="g36"><path
             id="path38"
             style="fill:#0e3558;fill-opacity:1;fill-rule:nonzero;stroke:none"
             d="m 0,0 v -7.38 c 0,-13.049 -6.151,-19.571 -18.448,-19.571 h -9.947 c -12.299,0 -18.449,6.522 -18.449,19.571 v 76.042 c 0,13.046 6.15,19.571 18.449,19.571 h 9.947 C -6.151,88.233 0,81.708 0,68.662 V 55.667 h -15.4 v 11.872 c 0,4.492 -2.301,6.737 -6.899,6.737 h -3.048 c -4.065,0 -6.095,-2.245 -6.095,-6.737 V -6.257 c 0,-4.491 2.03,-6.737 6.095,-6.737 h 3.851 c 4.062,0 6.096,2.246 6.096,6.737 l 0,6.257 z" /></g><path
           id="path40"
           style="fill:#0e3558;fill-opacity:1;fill-rule:nonzero;stroke:none"
           d="m 862.505,618.639 h 15.4 V 503.454 h -15.4 z" /><g
           transform="translate(948.6504,618.6387)"
           id="g42"><path
             id="path44"
             style="fill:#0e3558;fill-opacity:1;fill-rule:nonzero;stroke:none"
             d="M 0,0 -18.608,-115.185 H -36.897 L -55.507,0 h 15.241 L -27.753,-87.912 -15.24,0 Z" /></g><path
           id="path46"
           style="fill:#0e3558;fill-opacity:1;fill-rule:nonzero;stroke:none"
           d="m 963.891,618.639 h 15.4 V 503.454 h -15.4 z" /><g
           transform="translate(1046.1875,530.4053)"
           id="g48"><path
             id="path50"
             style="fill:#0e3558;fill-opacity:1;fill-rule:nonzero;stroke:none"
             d="m 0,0 v -7.38 c 0,-13.049 -6.152,-19.571 -18.449,-19.571 h -9.946 c -12.3,0 -18.449,6.522 -18.449,19.571 v 76.042 c 0,13.046 6.149,19.571 18.449,19.571 h 9.946 C -6.152,88.233 0,81.708 0,68.662 V 55.667 h -15.4 v 11.872 c 0,4.492 -2.303,6.737 -6.899,6.737 h -3.049 c -4.066,0 -6.095,-2.245 -6.095,-6.737 V -6.257 c 0,-4.491 2.029,-6.737 6.095,-6.737 h 3.85 c 4.064,0 6.098,2.246 6.098,6.737 l 0,6.257 z" /></g><g
           transform="translate(1090.166,503.4541)"
           id="g52"><path
             id="path54"
             style="fill:#0e3558;fill-opacity:1;fill-rule:nonzero;stroke:none"
             d="M 0,0 V 112.311 H 5.332 V 5.166 h 37.66 V 0 Z" /></g><g
           transform="translate(1152.1543,610.5996)"
           id="g56"><path
             id="path58"
             style="fill:#0e3558;fill-opacity:1;fill-rule:nonzero;stroke:none"
             d="m 0,0 v -48.324 h 35.158 v -5.165 H 0 v -48.49 h 35.158 v -5.167 H -5.166 V 5.166 H 35.158 V 0 Z" /></g><g
           transform="translate(1209.6406,508.6201)"
           id="g60"><path
             id="path62"
             style="fill:#0e3558;fill-opacity:1;fill-rule:nonzero;stroke:none"
             d="m 0,0 h 13.998 c 7.221,0 12.469,2.025 15.746,6.082 3.276,4.054 4.916,10.414 4.916,19.079 v 51.657 c 0,8.665 -1.64,15.023 -4.916,19.079 -3.277,4.054 -8.525,6.082 -15.746,6.082 L 0,101.979 Z M 13.998,-5.166 H -5.164 v 112.311 h 19.162 c 8.887,0 15.496,-2.666 19.83,-7.999 4.108,-4.889 6.164,-12.33 6.164,-22.328 V 25.161 C 39.992,15.163 37.936,7.72 33.828,2.832 29.494,-2.5 22.885,-5.166 13.998,-5.166" /></g><g
           transform="translate(1292.7891,503.4541)"
           id="g64"><path
             id="path66"
             style="fill:#0e3558;fill-opacity:1;fill-rule:nonzero;stroke:none"
             d="m 0,0 c -7.998,0 -14.053,2.554 -18.162,7.665 -3.891,5.108 -5.832,12.44 -5.832,21.996 v 53.156 c 0,9.664 1.941,16.939 5.832,21.829 4.109,5.108 10.164,7.665 18.162,7.665 8,0 13.998,-2.557 17.998,-7.665 3.998,-4.89 5.998,-12.165 5.998,-21.829 v -2.666 h -5.332 v 2.666 c 0,5.442 -0.611,9.774 -1.834,12.997 -1.223,3.221 -2.748,5.666 -4.582,7.332 -1.832,1.667 -3.832,2.75 -5.998,3.25 -2.166,0.5 -4.25,0.75 -6.25,0.75 -1.998,0 -4.109,-0.25 -6.332,-0.75 -2.223,-0.5 -4.248,-1.583 -6.082,-3.25 -1.832,-1.666 -3.361,-4.111 -4.582,-7.332 -1.223,-3.223 -1.832,-7.555 -1.832,-12.997 V 29.661 c 0,-8.332 1.609,-14.555 4.832,-18.663 3,-3.89 7.664,-5.832 13.996,-5.832 6.221,0 10.832,1.942 13.832,5.832 3.221,4.108 4.832,10.331 4.832,18.663 V 44.324 H -5.664 v 5.333 h 29.66 V 29.661 c 0,-9.665 -2,-16.997 -5.998,-21.996 C 13.998,2.554 8,0 0,0" /></g><g
           transform="translate(1339.2793,610.5996)"
           id="g68"><path
             id="path70"
             style="fill:#0e3558;fill-opacity:1;fill-rule:nonzero;stroke:none"
             d="m 0,0 v -48.324 h 35.158 v -5.165 H 0 v -48.49 h 35.158 v -5.167 H -5.166 V 5.166 H 35.158 V 0 Z" /></g><g
           transform="translate(1411.5977,561.4424)"
           id="g72"><path
             id="path74"
             style="fill:#0e3558;fill-opacity:1;fill-rule:nonzero;stroke:none"
             d="m 0,0 c 7.439,0 12.719,1.888 15.83,5.666 3.332,3.999 4.998,10.331 4.998,18.996 0,8.775 -1.611,15.052 -4.832,18.83 C 12.773,47.267 7.439,49.157 0,49.157 H -14.998 V 0 H -2.5 Z m 18.828,-6.832 c 5,-4.777 7.5,-11.388 7.5,-19.829 v -31.16 h -5.334 v 31.16 c 0,6.774 -1.832,12.023 -5.498,15.747 C 11.83,-7.193 6.664,-5.332 0,-5.332 h -2.5 -12.498 v -52.489 h -5.166 V 54.489 H 0 c 8.998,0 15.58,-2.416 19.746,-7.248 4.164,-4.832 6.248,-12.36 6.248,-22.579 0,-9.998 -2.057,-17.442 -6.166,-22.329 -1.777,-2.111 -3.998,-3.833 -6.664,-5.166 2.107,-0.999 3.998,-2.332 5.664,-3.999" /></g></g></g></g></svg>