<?xml version="1.0" encoding="utf-8"?>
<!-- Generator: Adobe Illustrator 24.1.0, SVG Export Plug-In . SVG Version: 6.00 Build 0)  -->
<svg version="1.1" xmlns="http://www.w3.org/2000/svg" xmlns:xlink="http://www.w3.org/1999/xlink" x="0px" y="0px"
	 viewBox="0 0 504 288" style="enable-background:new 0 0 504 288;" xml:space="preserve">
<style type="text/css">
	.st0{fill:#002B3A;}
</style>
<g id="logo">
	<path class="st0" d="M162.6,192.63c0,7.17-5.81,12.99-12.99,12.99s-12.99-5.81-12.99-12.99c0-4.68,2.47-8.78,6.18-11.06
		c0.44-0.27,0.91-0.52,1.38-0.74c1.65-0.76,3.49-1.18,5.42-1.18C156.78,179.64,162.6,185.45,162.6,192.63z"/>
	<polygon class="st0" points="142.74,86.33 242.67,26.45 342.35,86.33 342.6,201.54 242.18,261.55 228.81,253.33 228.48,142.71 
		228.48,142.71 228.48,134.17 277.95,105.43 314.26,85.47 301.08,77.71 244.4,42.59 157.77,94.22 157.48,182.3 142.8,181.56 	"/>
	<polygon class="st0" points="184.76,226.8 184.88,110.85 260.66,66.86 247.48,58.61 171.7,103.71 171.7,218.3 	"/>
	<polygon class="st0" points="213.71,244.18 213.71,127.49 288.88,83.87 274.46,75.12 199.3,119.85 199.3,235.31 	"/>
</g>
<g id="text">
</g>
</svg>
